# xmcd
#
# Track frame offsets: 
#        150
#        19912
#        37537
#        55540
#        72672
#        89218
#        105845
#        124995
#        145033
#        162663
#        178238
#        195853
#        214550
#
# Disc length: 3151 seconds
#
# Revision: 0
# Processed by: cddbd v1.5.2PL0 Copyright (c) Steve Scherf et al.
# Submitted via: ExactAudioCopy v0.99pb4
#
DISCID=b00c4d0d
DTITLE=Leona Lewis - Spirit
DYEAR=2008
DGENRE=R&B
TTITLE0=Bleeding Love
TTITLE1=Better In Time
TTITLE2=I Will Be
TTITLE3=I'm You
TTITLE4=Forgive Me
TTITLE5=Misses Glass
TTITLE6=Angel
TTITLE7=The First Time Ever I Saw Your Face
TTITLE8=Yesterday
TTITLE9=Whatever It Takes
TTITLE10=Take a Bow
TTITLE11=Footprints In The Sand
TTITLE12=Here I Am
EXTD=
EXTT0=
EXTT1=
EXTT2=
EXTT3=
EXTT4=
EXTT5=
EXTT6=
EXTT7=
EXTT8=
EXTT9=
EXTT10=
EXTT11=
EXTT12=
PLAYORDER=
